<mxfile host="app.diagrams.net" modified="2023-06-15T12:55:20.277Z" agent="Mozilla/5.0 (Windows NT 10.0; Win64; x64) AppleWebKit/537.36 (KHTML, like Gecko) Chrome/114.0.0.0 Safari/537.36 Edg/114.0.1823.43" etag="KdAAx1RgQO-oCzmzs04_" version="21.4.0" type="device" pages="2">
  <diagram name="Page-1" id="bfe91b75-5d2c-26a0-9c1d-138518896778">
    <mxGraphModel dx="1194" dy="758" grid="1" gridSize="10" guides="1" tooltips="1" connect="1" arrows="1" fold="1" page="1" pageScale="1" pageWidth="1100" pageHeight="850" background="none" math="0" shadow="0">
      <root>
        <mxCell id="0" />
        <mxCell id="1" parent="0" />
        <mxCell id="7c3789c024ecab99-78" value="Subnet A" style="rounded=1;whiteSpace=wrap;html=1;shadow=0;comic=0;strokeColor=#036897;strokeWidth=2;fillColor=none;fontFamily=Verdana;fontSize=28;fontColor=#6881B3;align=center;arcSize=11;verticalAlign=top;" parent="1" vertex="1">
          <mxGeometry x="40" y="20" width="340" height="330" as="geometry" />
        </mxCell>
        <mxCell id="7c3789c024ecab99-10" value="" style="fontColor=#0066CC;verticalAlign=top;verticalLabelPosition=bottom;labelPosition=center;align=center;html=1;fillColor=#CCCCCC;strokeColor=#6881B3;gradientColor=none;gradientDirection=north;strokeWidth=2;shape=mxgraph.networks.router;rounded=0;shadow=0;comic=0;" parent="1" vertex="1">
          <mxGeometry x="370" y="425" width="100" height="30" as="geometry" />
        </mxCell>
        <mxCell id="7c3789c024ecab99-53" value="&lt;font style=&quot;font-size: 19px;&quot;&gt;Internet&lt;br&gt;gateway&lt;/font&gt;" style="html=1;fillColor=#CCCCCC;strokeColor=#6881B3;gradientColor=none;gradientDirection=north;strokeWidth=2;shape=mxgraph.networks.cloud;fontColor=#6881B3;rounded=0;shadow=0;comic=0;align=center;fontSize=28;" parent="1" vertex="1">
          <mxGeometry x="970" y="580" width="170" height="107" as="geometry" />
        </mxCell>
        <mxCell id="7c3789c024ecab99-67" value="" style="fontColor=#0066CC;verticalAlign=top;verticalLabelPosition=bottom;labelPosition=center;align=center;html=1;fillColor=#CCCCCC;strokeColor=#6881B3;gradientColor=none;gradientDirection=north;strokeWidth=2;shape=mxgraph.networks.wireless_hub;rounded=0;shadow=0;comic=0;" parent="1" vertex="1">
          <mxGeometry x="880.0000000000002" y="370.00176470588235" width="100" height="85" as="geometry" />
        </mxCell>
        <mxCell id="yAk981qF_AMCbcsz0YKY-1" value="" style="fontColor=#0066CC;verticalAlign=top;verticalLabelPosition=bottom;labelPosition=center;align=center;html=1;fillColor=#CCCCCC;strokeColor=#6881B3;gradientColor=none;gradientDirection=north;strokeWidth=2;shape=mxgraph.networks.pc;rounded=0;shadow=0;comic=0;" vertex="1" parent="1">
          <mxGeometry x="60" y="210" width="80" height="70" as="geometry" />
        </mxCell>
        <mxCell id="yAk981qF_AMCbcsz0YKY-6" value="&lt;div style=&quot;font-size: 15px;&quot;&gt;&lt;b style=&quot;&quot;&gt;&lt;span style=&quot;&quot;&gt;Private Subnet&lt;/span&gt;&lt;br&gt;&lt;font style=&quot;font-size: 15px;&quot;&gt;&amp;nbsp; &lt;/font&gt;&lt;/b&gt;&lt;font style=&quot;font-size: 13px;&quot;&gt;&lt;b style=&quot;background-color: initial;&quot;&gt;&lt;font style=&quot;font-size: 13px;&quot;&gt;192.168.1.0&lt;/font&gt;&lt;/b&gt;&lt;b style=&quot;background-color: initial;&quot;&gt;&lt;font style=&quot;font-size: 13px;&quot;&gt;&amp;nbsp;&lt;/font&gt;&lt;/b&gt;&lt;/font&gt;&lt;/div&gt;&lt;div style=&quot;font-size: 15px;&quot;&gt;&lt;font style=&quot;font-size: 13px;&quot;&gt;&lt;b style=&quot;background-color: initial;&quot;&gt;&lt;font style=&quot;font-size: 13px;&quot;&gt;&lt;br&gt;&lt;/font&gt;&lt;/b&gt;&lt;/font&gt;&lt;/div&gt;&lt;div style=&quot;font-size: 13px;&quot;&gt;&lt;span style=&quot;&quot;&gt;hosts (max) =&amp;nbsp; &lt;span style=&quot;&quot;&gt;&lt;span style=&quot;white-space: pre;&quot;&gt;&amp;nbsp;&amp;nbsp;&amp;nbsp;   &lt;/span&gt;&lt;/span&gt;30&amp;nbsp; &lt;span style=&quot;&quot;&gt;&lt;span style=&quot;white-space: pre;&quot;&gt;&amp;nbsp;&amp;nbsp;&lt;/span&gt;&lt;/span&gt;&lt;/span&gt;&lt;/div&gt;&lt;div&gt;&lt;span style=&quot;&quot;&gt;&lt;span style=&quot;&quot;&gt;&lt;span style=&quot;white-space: pre;&quot;&gt;&amp;nbsp;&amp;nbsp;&amp;nbsp;&amp;nbsp;     &lt;/span&gt;&lt;/span&gt;&lt;/span&gt;&lt;/div&gt;" style="text;html=1;align=center;verticalAlign=middle;resizable=0;points=[];autosize=1;strokeColor=none;fillColor=none;" vertex="1" parent="1">
          <mxGeometry x="130" y="90" width="160" height="100" as="geometry" />
        </mxCell>
        <mxCell id="yAk981qF_AMCbcsz0YKY-7" value="" style="fontColor=#0066CC;verticalAlign=top;verticalLabelPosition=bottom;labelPosition=center;align=center;html=1;fillColor=#CCCCCC;strokeColor=#6881B3;gradientColor=none;gradientDirection=north;strokeWidth=2;shape=mxgraph.networks.pc;rounded=0;shadow=0;comic=0;" vertex="1" parent="1">
          <mxGeometry x="170" y="210" width="80" height="70" as="geometry" />
        </mxCell>
        <mxCell id="yAk981qF_AMCbcsz0YKY-8" value="" style="fontColor=#0066CC;verticalAlign=top;verticalLabelPosition=bottom;labelPosition=center;align=center;html=1;fillColor=#CCCCCC;strokeColor=#6881B3;gradientColor=none;gradientDirection=north;strokeWidth=2;shape=mxgraph.networks.pc;rounded=0;shadow=0;comic=0;" vertex="1" parent="1">
          <mxGeometry x="280" y="210" width="80" height="70" as="geometry" />
        </mxCell>
        <mxCell id="yAk981qF_AMCbcsz0YKY-10" value="" style="ellipse;whiteSpace=wrap;html=1;fillColor=none;" vertex="1" parent="1">
          <mxGeometry x="455" y="70" width="330" height="280" as="geometry" />
        </mxCell>
        <mxCell id="yAk981qF_AMCbcsz0YKY-11" value="Subnet B" style="rounded=1;whiteSpace=wrap;html=1;shadow=0;comic=0;strokeColor=#036897;strokeWidth=2;fillColor=none;fontFamily=Verdana;fontSize=28;fontColor=#6881B3;align=center;arcSize=11;verticalAlign=top;" vertex="1" parent="1">
          <mxGeometry x="450" y="20" width="340" height="330" as="geometry" />
        </mxCell>
        <mxCell id="yAk981qF_AMCbcsz0YKY-12" value="" style="fontColor=#0066CC;verticalAlign=top;verticalLabelPosition=bottom;labelPosition=center;align=center;html=1;fillColor=#CCCCCC;strokeColor=#6881B3;gradientColor=none;gradientDirection=north;strokeWidth=2;shape=mxgraph.networks.pc;rounded=0;shadow=0;comic=0;" vertex="1" parent="1">
          <mxGeometry x="470" y="210" width="80" height="70" as="geometry" />
        </mxCell>
        <mxCell id="yAk981qF_AMCbcsz0YKY-13" value="&lt;div style=&quot;font-size: 15px;&quot;&gt;&lt;b style=&quot;&quot;&gt;&lt;span style=&quot;&quot;&gt;Private Subnet&lt;/span&gt;&lt;br&gt;&lt;font style=&quot;font-size: 15px;&quot;&gt;&amp;nbsp; &lt;/font&gt;&lt;/b&gt;&lt;font style=&quot;font-size: 13px;&quot;&gt;&lt;b style=&quot;background-color: initial;&quot;&gt;&lt;font style=&quot;font-size: 13px;&quot;&gt;192.168.1.32&lt;/font&gt;&lt;/b&gt;&lt;/font&gt;&lt;/div&gt;&lt;div style=&quot;font-size: 15px;&quot;&gt;&lt;font style=&quot;font-size: 13px;&quot;&gt;&lt;b style=&quot;background-color: initial;&quot;&gt;&lt;font style=&quot;font-size: 13px;&quot;&gt;&lt;br&gt;&lt;/font&gt;&lt;/b&gt;&lt;/font&gt;&lt;/div&gt;&lt;div style=&quot;font-size: 13px;&quot;&gt;&lt;span style=&quot;&quot;&gt;hosts (max) =&amp;nbsp; &lt;span style=&quot;&quot;&gt;&lt;span style=&quot;white-space: pre;&quot;&gt;&amp;nbsp;&amp;nbsp;&amp;nbsp;    &lt;/span&gt;&lt;/span&gt;30&amp;nbsp; &lt;span style=&quot;&quot;&gt;&lt;span style=&quot;white-space: pre;&quot;&gt;&amp;nbsp;&amp;nbsp;&lt;/span&gt;&lt;/span&gt;&lt;/span&gt;&lt;/div&gt;&lt;div&gt;&lt;br&gt;&lt;/div&gt;" style="text;html=1;align=center;verticalAlign=middle;resizable=0;points=[];autosize=1;strokeColor=none;fillColor=none;" vertex="1" parent="1">
          <mxGeometry x="540" y="90" width="160" height="100" as="geometry" />
        </mxCell>
        <mxCell id="yAk981qF_AMCbcsz0YKY-14" value="" style="fontColor=#0066CC;verticalAlign=top;verticalLabelPosition=bottom;labelPosition=center;align=center;html=1;fillColor=#CCCCCC;strokeColor=#6881B3;gradientColor=none;gradientDirection=north;strokeWidth=2;shape=mxgraph.networks.pc;rounded=0;shadow=0;comic=0;" vertex="1" parent="1">
          <mxGeometry x="580" y="210" width="80" height="70" as="geometry" />
        </mxCell>
        <mxCell id="yAk981qF_AMCbcsz0YKY-15" value="" style="fontColor=#0066CC;verticalAlign=top;verticalLabelPosition=bottom;labelPosition=center;align=center;html=1;fillColor=#CCCCCC;strokeColor=#6881B3;gradientColor=none;gradientDirection=north;strokeWidth=2;shape=mxgraph.networks.pc;rounded=0;shadow=0;comic=0;" vertex="1" parent="1">
          <mxGeometry x="690" y="210" width="80" height="70" as="geometry" />
        </mxCell>
        <mxCell id="yAk981qF_AMCbcsz0YKY-16" value="" style="ellipse;whiteSpace=wrap;html=1;fillColor=none;" vertex="1" parent="1">
          <mxGeometry x="45" y="70" width="330" height="280" as="geometry" />
        </mxCell>
        <mxCell id="yAk981qF_AMCbcsz0YKY-17" value="" style="endArrow=none;html=1;rounded=0;" edge="1" parent="1">
          <mxGeometry width="50" height="50" relative="1" as="geometry">
            <mxPoint x="140" y="244.5" as="sourcePoint" />
            <mxPoint x="170" y="244.5" as="targetPoint" />
          </mxGeometry>
        </mxCell>
        <mxCell id="yAk981qF_AMCbcsz0YKY-18" value="" style="endArrow=none;html=1;rounded=0;" edge="1" parent="1">
          <mxGeometry width="50" height="50" relative="1" as="geometry">
            <mxPoint x="250" y="244.5" as="sourcePoint" />
            <mxPoint x="280" y="244.5" as="targetPoint" />
          </mxGeometry>
        </mxCell>
        <mxCell id="yAk981qF_AMCbcsz0YKY-19" value="" style="endArrow=none;html=1;rounded=0;" edge="1" parent="1">
          <mxGeometry width="50" height="50" relative="1" as="geometry">
            <mxPoint x="550" y="244.5" as="sourcePoint" />
            <mxPoint x="580" y="244.5" as="targetPoint" />
          </mxGeometry>
        </mxCell>
        <mxCell id="yAk981qF_AMCbcsz0YKY-20" value="" style="endArrow=none;html=1;rounded=0;" edge="1" parent="1">
          <mxGeometry width="50" height="50" relative="1" as="geometry">
            <mxPoint x="660" y="244.5" as="sourcePoint" />
            <mxPoint x="690" y="244.5" as="targetPoint" />
          </mxGeometry>
        </mxCell>
        <mxCell id="coZjv7fubx1h6_PfU3Ql-1" value="Subnet C" style="rounded=1;whiteSpace=wrap;html=1;shadow=0;comic=0;strokeColor=#036897;strokeWidth=2;fillColor=none;fontFamily=Verdana;fontSize=28;fontColor=#6881B3;align=center;arcSize=11;verticalAlign=top;" vertex="1" parent="1">
          <mxGeometry x="880" y="20" width="320" height="460" as="geometry" />
        </mxCell>
        <mxCell id="coZjv7fubx1h6_PfU3Ql-2" value="" style="fontColor=#0066CC;verticalAlign=top;verticalLabelPosition=bottom;labelPosition=center;align=center;html=1;fillColor=#CCCCCC;strokeColor=#6881B3;gradientColor=none;gradientDirection=north;strokeWidth=2;shape=mxgraph.networks.pc;rounded=0;shadow=0;comic=0;" vertex="1" parent="1">
          <mxGeometry x="890" y="210" width="80" height="70" as="geometry" />
        </mxCell>
        <mxCell id="coZjv7fubx1h6_PfU3Ql-3" value="&lt;div style=&quot;&quot;&gt;&lt;b style=&quot;&quot;&gt;&lt;span style=&quot;font-size: 15px;&quot;&gt;Public Subnet&lt;/span&gt;&lt;br&gt;&lt;font style=&quot;font-size: 15px;&quot;&gt;&amp;nbsp; &lt;/font&gt;&lt;font style=&quot;font-size: 13px;&quot;&gt;169.255.0.0&lt;/font&gt;&lt;/b&gt;&lt;/div&gt;&lt;div style=&quot;font-size: 15px;&quot;&gt;&lt;font style=&quot;font-size: 13px;&quot;&gt;&lt;b style=&quot;background-color: initial;&quot;&gt;&lt;font style=&quot;font-size: 13px;&quot;&gt;&lt;br&gt;&lt;/font&gt;&lt;/b&gt;&lt;/font&gt;&lt;/div&gt;&lt;div style=&quot;font-size: 13px;&quot;&gt;&lt;span style=&quot;&quot;&gt;hosts (max) =&amp;nbsp; &lt;span style=&quot;&quot;&gt;&lt;span style=&quot;white-space: pre;&quot;&gt;&amp;nbsp;&amp;nbsp;&amp;nbsp;    6&lt;/span&gt;&lt;/span&gt;&amp;nbsp;&amp;nbsp;&lt;span style=&quot;&quot;&gt;&lt;span style=&quot;white-space: pre;&quot;&gt;&amp;nbsp;&amp;nbsp;&lt;/span&gt;&lt;/span&gt;&lt;/span&gt;&lt;/div&gt;&lt;div&gt;&lt;br&gt;&lt;/div&gt;" style="text;html=1;align=center;verticalAlign=middle;resizable=0;points=[];autosize=1;strokeColor=none;fillColor=none;" vertex="1" parent="1">
          <mxGeometry x="960" y="90" width="160" height="100" as="geometry" />
        </mxCell>
        <mxCell id="coZjv7fubx1h6_PfU3Ql-4" value="" style="fontColor=#0066CC;verticalAlign=top;verticalLabelPosition=bottom;labelPosition=center;align=center;html=1;fillColor=#CCCCCC;strokeColor=#6881B3;gradientColor=none;gradientDirection=north;strokeWidth=2;shape=mxgraph.networks.pc;rounded=0;shadow=0;comic=0;" vertex="1" parent="1">
          <mxGeometry x="1000" y="210" width="80" height="70" as="geometry" />
        </mxCell>
        <mxCell id="coZjv7fubx1h6_PfU3Ql-5" value="" style="fontColor=#0066CC;verticalAlign=top;verticalLabelPosition=bottom;labelPosition=center;align=center;html=1;fillColor=#CCCCCC;strokeColor=#6881B3;gradientColor=none;gradientDirection=north;strokeWidth=2;shape=mxgraph.networks.pc;rounded=0;shadow=0;comic=0;" vertex="1" parent="1">
          <mxGeometry x="1110" y="210" width="80" height="70" as="geometry" />
        </mxCell>
        <mxCell id="coZjv7fubx1h6_PfU3Ql-6" value="" style="endArrow=none;html=1;rounded=0;" edge="1" parent="1">
          <mxGeometry width="50" height="50" relative="1" as="geometry">
            <mxPoint x="970" y="244.5" as="sourcePoint" />
            <mxPoint x="1000" y="244.5" as="targetPoint" />
          </mxGeometry>
        </mxCell>
        <mxCell id="coZjv7fubx1h6_PfU3Ql-7" value="" style="endArrow=none;html=1;rounded=0;" edge="1" parent="1">
          <mxGeometry width="50" height="50" relative="1" as="geometry">
            <mxPoint x="1080" y="244.5" as="sourcePoint" />
            <mxPoint x="1110" y="244.5" as="targetPoint" />
          </mxGeometry>
        </mxCell>
        <mxCell id="coZjv7fubx1h6_PfU3Ql-8" value="&lt;b&gt;&lt;font style=&quot;font-size: 16px;&quot;&gt;Switch&lt;/font&gt;&lt;/b&gt;" style="text;html=1;align=center;verticalAlign=middle;resizable=0;points=[];autosize=1;strokeColor=none;fillColor=none;" vertex="1" parent="1">
          <mxGeometry x="385" y="400" width="80" height="30" as="geometry" />
        </mxCell>
        <mxCell id="coZjv7fubx1h6_PfU3Ql-9" value="" style="endArrow=none;html=1;rounded=0;entryX=0.444;entryY=0.997;entryDx=0;entryDy=0;entryPerimeter=0;" edge="1" parent="1" target="yAk981qF_AMCbcsz0YKY-11">
          <mxGeometry width="50" height="50" relative="1" as="geometry">
            <mxPoint x="470" y="430" as="sourcePoint" />
            <mxPoint x="520" y="380" as="targetPoint" />
          </mxGeometry>
        </mxCell>
        <mxCell id="coZjv7fubx1h6_PfU3Ql-10" value="" style="endArrow=none;html=1;rounded=0;exitX=0.5;exitY=1;exitDx=0;exitDy=0;entryX=0;entryY=0.5;entryDx=0;entryDy=0;entryPerimeter=0;" edge="1" parent="1" source="yAk981qF_AMCbcsz0YKY-16" target="7c3789c024ecab99-10">
          <mxGeometry width="50" height="50" relative="1" as="geometry">
            <mxPoint x="120" y="379" as="sourcePoint" />
            <mxPoint x="370" y="440" as="targetPoint" />
          </mxGeometry>
        </mxCell>
        <mxCell id="coZjv7fubx1h6_PfU3Ql-11" value="" style="endArrow=none;html=1;rounded=0;strokeWidth=3;exitX=-0.008;exitY=0.914;exitDx=0;exitDy=0;exitPerimeter=0;" edge="1" parent="1" source="coZjv7fubx1h6_PfU3Ql-1">
          <mxGeometry width="50" height="50" relative="1" as="geometry">
            <mxPoint x="700" y="460" as="sourcePoint" />
            <mxPoint x="680" y="440" as="targetPoint" />
          </mxGeometry>
        </mxCell>
        <mxCell id="coZjv7fubx1h6_PfU3Ql-16" value="" style="endArrow=none;html=1;rounded=0;strokeWidth=3;" edge="1" parent="1">
          <mxGeometry width="50" height="50" relative="1" as="geometry">
            <mxPoint x="680" y="440" as="sourcePoint" />
            <mxPoint x="680" y="350" as="targetPoint" />
          </mxGeometry>
        </mxCell>
        <mxCell id="coZjv7fubx1h6_PfU3Ql-17" value="&lt;b&gt;NAT gateway&lt;/b&gt;" style="text;html=1;align=center;verticalAlign=middle;resizable=0;points=[];autosize=1;strokeColor=none;fillColor=none;" vertex="1" parent="1">
          <mxGeometry x="880" y="450" width="100" height="30" as="geometry" />
        </mxCell>
        <mxCell id="coZjv7fubx1h6_PfU3Ql-19" value="" style="endArrow=none;html=1;rounded=0;strokeWidth=3;" edge="1" parent="1">
          <mxGeometry width="50" height="50" relative="1" as="geometry">
            <mxPoint x="1050" y="590" as="sourcePoint" />
            <mxPoint x="1050" y="480" as="targetPoint" />
          </mxGeometry>
        </mxCell>
        <mxCell id="coZjv7fubx1h6_PfU3Ql-20" value="" style="endArrow=none;html=1;rounded=0;strokeWidth=3;" edge="1" parent="1">
          <mxGeometry width="50" height="50" relative="1" as="geometry">
            <mxPoint x="1050" y="480" as="sourcePoint" />
            <mxPoint x="1050.5" y="430" as="targetPoint" />
          </mxGeometry>
        </mxCell>
        <mxCell id="coZjv7fubx1h6_PfU3Ql-21" value="" style="endArrow=none;html=1;rounded=0;strokeWidth=3;" edge="1" parent="1">
          <mxGeometry width="50" height="50" relative="1" as="geometry">
            <mxPoint x="980" y="430" as="sourcePoint" />
            <mxPoint x="1050" y="430" as="targetPoint" />
          </mxGeometry>
        </mxCell>
        <mxCell id="coZjv7fubx1h6_PfU3Ql-22" value="" style="endArrow=none;html=1;rounded=0;" edge="1" parent="1">
          <mxGeometry width="50" height="50" relative="1" as="geometry">
            <mxPoint x="930" y="280" as="sourcePoint" />
            <mxPoint x="1150" y="280" as="targetPoint" />
            <Array as="points">
              <mxPoint x="1040" y="320" />
            </Array>
          </mxGeometry>
        </mxCell>
        <mxCell id="coZjv7fubx1h6_PfU3Ql-23" value="" style="endArrow=none;html=1;rounded=0;strokeWidth=2;" edge="1" parent="1">
          <mxGeometry width="50" height="50" relative="1" as="geometry">
            <mxPoint x="1039.5" y="430" as="sourcePoint" />
            <mxPoint x="1039.5" y="320" as="targetPoint" />
          </mxGeometry>
        </mxCell>
      </root>
    </mxGraphModel>
  </diagram>
  <diagram id="2TQ3M8imKJWL8b9wTjli" name="Page-2">
    <mxGraphModel dx="1194" dy="758" grid="1" gridSize="10" guides="1" tooltips="1" connect="1" arrows="1" fold="1" page="1" pageScale="1" pageWidth="827" pageHeight="1169" math="0" shadow="0">
      <root>
        <mxCell id="0" />
        <mxCell id="1" parent="0" />
      </root>
    </mxGraphModel>
  </diagram>
</mxfile>
